<?xml version="1.0" encoding="UTF-8" standalone="no"?>
<!-- Created with Inkscape (http://www.inkscape.org/) -->

<svg
   width="10mm"
   height="10mm"
   viewBox="0 0 10 10"
   version="1.1"
   id="svg1"
   inkscape:version="1.3.2 (091e20ef0f, 2023-11-25, custom)"
   sodipodi:docname="cu-logo.svg"
   xmlns:inkscape="http://www.inkscape.org/namespaces/inkscape"
   xmlns:sodipodi="http://sodipodi.sourceforge.net/DTD/sodipodi-0.dtd"
   xmlns="http://www.w3.org/2000/svg"
   xmlns:svg="http://www.w3.org/2000/svg">
  <sodipodi:namedview
     id="namedview1"
     pagecolor="#000000"
     bordercolor="#000000"
     borderopacity="0.25"
     inkscape:showpageshadow="2"
     inkscape:pageopacity="0.0"
     inkscape:pagecheckerboard="0"
     inkscape:deskcolor="#d1d1d1"
     inkscape:document-units="mm"
     inkscape:zoom="14.111111"
     inkscape:cx="39.755905"
     inkscape:cy="38.232283"
     inkscape:window-width="2560"
     inkscape:window-height="1410"
     inkscape:window-x="0"
     inkscape:window-y="30"
     inkscape:window-maximized="1"
     inkscape:current-layer="layer1" />
  <defs
     id="defs1" />
  <g
     inkscape:label="Layer 1"
     inkscape:groupmode="layer"
     id="layer1">
    <g
       id="g1"
       transform="matrix(0.37768921,0,0,0.3929253,-33.776432,-42.728171)">
      <path
         id="rect1"
         style="fill:#ffffff;fill-opacity:1;stroke-width:0.264583"
         d="m 89.429167,121.77965 v 12.41423 H 115.8875 v -12.41423 z m 14.853873,1.82831 c 0.1561,0 0.62167,0.0608 0.62167,0.26458 a 0.68262499,0.68262499 0 0 1 -0.12971,0.29921 0.62970833,0.62970833 0 0 0 -0.52917,-0.29921 0.36247916,0.36247916 0 0 0 -0.39429,0.34158 c 0,0.55827 1.12479,0.32798 1.11156,1.08469 0,0.52917 -0.458,0.79375 -0.93689,0.79375 a 1.1138958,1.1138958 0 0 1 -0.50798,-0.11627 0.21695833,0.21695833 0 0 1 -0.12971,-0.21704 1.5345833,1.5345833 0 0 1 0.0636,-0.29094 0.86254166,0.86254166 0 0 0 0.70125,0.34365 0.396875,0.396875 0 0 0 0.43357,-0.4098 c 0,-0.52916 -1.12965,-0.31781 -1.12965,-1.11156 0,-0.45243 0.4104,-0.68264 0.82579,-0.68264 z m 5.75986,0.0289 h 0.003 c 0.74489,0.001 1.34409,0.48798 1.34409,1.24643 0,0.75936 -0.6165,1.21698 -1.3441,1.21698 -0.7276,0 -1.32292,-0.46267 -1.32292,-1.22731 0,-0.81136 0.52808,-1.23515 1.32034,-1.2361 z m -3.00551,0.0109 a 1.7965208,1.7965208 0 0 1 0.79375,0.16123 0.16139583,0.16139583 0 0 1 0.0816,0.21187 l -0.0739,0.21136 a 1.3229166,1.3229166 0 0 0 -0.79375,-0.3359 c -0.58209,0 -0.89969,0.43405 -0.89969,0.98702 a 0.88899999,0.88899999 0 0 0 0.93121,0.96584 1.444625,1.444625 0 0 0 0.51366,-0.0822 v -0.3545 a 2.5532291,2.5532291 0 0 0 -0.032,-0.52917 h 0.26459 a 0.17727083,0.17727083 0 0 1 0.19843,0.17725 v 0.56379 0.3173 a 3.96875,3.96875 0 0 1 -1.00252,0.17208 c -0.77523,0 -1.37873,-0.37317 -1.37873,-1.23042 0,-0.85725 0.60359,-1.23558 1.39733,-1.23558 z m -4.48241,0.003 h 0.32298 a 0.07408333,0.07408333 0 0 1 0.0977,0.0636 0.1825625,0.1825625 0 0 1 -0.0315,0.0822 c -0.09,0.11642 -0.18256,0.23531 -0.26458,0.35967 a 9.6863957,9.6863957 0 0 0 -0.57154,0.86248 9.7472499,9.7472499 0 0 0 0.0372,1.04231 h -0.32815 a 0.1349375,0.1349375 0 0 1 -0.16123,-0.12402 c 0,-0.12965 0.0181,-0.37306 0.0181,-0.59531 v -0.26459 c -0.29898,-0.48418 -0.60811,-0.95504 -0.94413,-1.41541 h 0.39687 a 0.26458333,0.26458333 0 0 1 0.26459,0.13487 c 0.18521,0.30956 0.37013,0.62682 0.56327,0.93638 0.0714,-0.0952 0.19831,-0.31221 0.3359,-0.52917 a 1.9579166,1.9579166 0 0 0 0.26458,-0.55294 z m -5.421374,0.003 h 0.285771 a 0.17197916,0.17197916 0 0 1 0.198437,0.2036 c 0,0.29633 -0.02377,0.40787 -0.02377,0.88677 v 0.003 c 0,0.64029 0.0134,1.04213 0.03721,1.31465 h -0.299206 a 0.174625,0.174625 0 0 1 -0.185002,-0.19844 c 0,-0.36512 0.02377,-0.49712 0.02377,-1.09244 a 10.226146,10.226146 0 0 0 -0.03721,-1.11672 z m 14.914854,0.005 h 0.25373 c 0.21167,0 0.2434,0.0613 0.2434,0.18035 -0.0185,0.23548 -0.0181,0.47326 -0.0181,0.69815 v 1.25936 c 0.33337,0 0.886,-0.005 1.02888,-0.0925 0,0.13229 0.003,0.19327 0.003,0.19327 a 0.1905,0.1905 0 0 1 -0.16123,0.17466 h -1.11104 c -0.2249,0 -0.22531,-0.0872 -0.22531,-0.17983 0.0185,-0.23548 0.0186,-0.4659 0.0186,-0.69608 v -0.65061 c 0,-0.28839 -0.013,-0.5825 -0.0315,-0.88677 z m -13.295315,0.006 h 1.367875 v 0.003 c 0.17992,0 0.14267,0.20896 0.11886,0.33331 a 3.7808958,3.7808958 0 0 0 -1.023714,-0.0873 v 0.2806 0.5023 c 0.330729,0 0.650772,-0.0367 0.820104,-0.0367 0.16933,0 0.13746,0.21133 0.13746,0.32246 a 5.3445833,5.3445833 0 0 0 -0.95498,-0.0631 v 0.31729 c 0,0.28046 0.02623,0.55314 0.03152,0.83096 h -0.29869 a 0.15875,0.15875 0 0 1 -0.185518,-0.17467 c 0,-0.32279 0.0186,-0.54527 0.0186,-0.96066 v -0.88884 c -0.01323,-0.12964 -0.03152,-0.24862 -0.03152,-0.37827 z m -4.32325,0.003 h 0.285771 0.581877 c 0.428624,0 0.881083,0.14811 0.881083,0.66404 a 0.74877082,0.74877082 0 0 1 -0.60048,0.70639 7.6332291,7.6332291 0 0 0 0.994771,1.28571 h -0.118856 a 0.76993749,0.76993749 0 0 1 -0.696081,-0.34623 c -0.216958,-0.29898 -0.396648,-0.56363 -0.56069,-0.85731 h -0.264583 a 6.9241457,6.9241457 0 0 0 0.04496,0.93637 h -0.31781 a 0.14552083,0.14552083 0 0 1 -0.174666,-0.15606 v -0.34675 -0.71417 c 0,-0.33337 0.01852,-0.7462 0,-1.01079 a 0.35454166,0.35454166 0 0 0 -0.05529,-0.16123 z m -2.373498,0.008 h 0.875915 c 0.427759,0.008 0.854445,0.15179 0.867648,0.66404 0,0.55827 -0.534232,0.79375 -1.02371,0.79375 h -0.222209 c 0,0.30957 0.0051,0.64586 0.03152,0.9369 h -0.29869 a 0.16933333,0.16933333 0 0 1 -0.174667,-0.19844 v -0.71988 -1.04231 a 1.2938125,1.2938125 0 0 0 -0.05581,-0.43409 z m 2.857707,0.19844 v 0.79375 0.24081 h 0.134875 0.0026 c 0.338666,0.008 0.701042,-0.11116 0.687813,-0.50539 a 0.55297916,0.55297916 0 0 0 -0.613916,-0.52917 z m 15.131376,0.0109 c -0.55827,0 -0.83871,0.47586 -0.83871,0.98651 0,0.51064 0.28044,0.98185 0.83871,0.98185 l -0.003,0.003 c 0.64029,0 0.84387,-0.41008 0.84387,-0.971 0,-0.52917 -0.28302,-0.99994 -0.84129,-0.99994 z m -17.504875,0.008 v 1.04231 h 0.19327 a 0.55033333,0.55033333 0 0 0 0.605648,-0.56327 c 0,-0.35455 -0.240606,-0.47904 -0.558106,-0.47904 z M 93.879541,127 a 3.3416875,3.3416875 0 0 1 1.465544,0.34106 0.43656249,0.43656249 0 0 1 0.267167,0.36019 1.6774583,1.6774583 0 0 1 -0.317293,0.71417 1.1191875,1.1191875 0 0 0 -0.359668,-0.58446 1.7436041,1.7436041 0 0 0 -1.148251,-0.40256 c -1.240894,0 -1.886706,1.1166 -1.886706,2.24637 0,1.32292 0.913041,2.45825 2.283581,2.45825 a 1.9711458,1.9711458 0 0 0 1.240752,-0.52917 l 0.06356,0.52917 a 2.9104166,2.9104166 0 0 1 -1.61954,0.4656 c -1.547811,0 -2.756937,-1.03198 -2.756937,-2.61947 0,-1.63777 1.103562,-2.97915 2.767789,-2.97915 z m 7.630539,0.36535 c 0.79375,0 1.5875,0.32786 1.5875,1.22215 a 1.476375,1.476375 0 0 1 -1.12706,1.41025 h 0.0186 c 0.52123,0.78317 1.65082,2.25687 2.5213,2.5585 a 5.4292499,5.4292499 0 0 1 -0.56896,0.0687 c -0.74877,0 -1.38377,-0.70908 -1.85208,-1.32292 -0.30163,-0.4101 -0.57415,-0.81508 -0.79375,-1.16168 h -0.52917 a 9.7154999,9.7154999 0 0 0 0.0822,1.29656 0.48683333,0.48683333 0 0 0 0.0822,0.23564 h -0.79375 c -0.0794,0 -0.11679,-0.0133 -0.11679,-0.10593 0,-0.2249 0.0558,-0.90757 0.0558,-2.0929 v -1.60042 a 1.2726458,1.2726458 0 0 0 -0.08733,-0.48989 c 0.51064,-0.0185 1.01865,-0.0181 1.52135,-0.0181 z m -3.664373,0.005 h 1.373043 a 0.238125,0.238125 0 0 1 0.208773,0.2434 v 0.14004 c -0.103187,-0.045 -0.285317,-0.10594 -1.010274,-0.10594 v 0.43408 0.48938 c 0.253999,0 0.502729,-0.0315 0.682645,-0.0315 0.179917,0 0.248564,0.0502 0.248564,0.17983 v 0.19327 a 3.2887708,3.2887708 0 0 0 -0.913123,-0.0873 v 0.86765 c 0.0053,0.11112 0.01902,0.16691 0.111622,0.16691 a 2.1801666,2.1801666 0 0 0 0.936377,-0.12454 v 0.19844 a 0.19579166,0.19579166 0 0 1 -0.240813,0.17466 h -1.179773 c -0.142874,0 -0.166914,-0.0794 -0.166914,-0.21704 0.01235,-0.26811 0.0186,-0.53269 0.0186,-0.79375 v -1.32291 a 0.88106249,0.88106249 0 0 0 -0.06873,-0.40463 z m 13.234333,0.005 h 1.34669 l 0.0212,0.003 c 1.10595,0 1.87604,0.47084 1.8681,1.65881 a 1.6404166,1.6404166 0 0 1 -1.14308,1.6645 c -0.0556,1.09008 -0.86238,1.67484 -1.94717,1.67484 h -1.00562 a 0.15345833,0.15345833 0 0 1 -0.1695,-0.14832 c 0.037,-0.5662 0.0372,-1.13762 0.0372,-1.70118 0,-0.43921 -0.0131,-0.85471 -0.0501,-1.29657 a 0.72760416,0.72760416 0 0 0 -0.10077,-0.31729 h 1.29139 c 0,-0.41539 -0.0189,-0.81256 -0.0506,-1.22266 a 0.65616666,0.65616666 0 0 0 -0.0977,-0.31471 z m -7.40833,0.016 h 1.63246 c 1.38377,0 2.36006,0.61623 2.36006,2.06085 0,1.44463 -1.02913,2.20917 -2.40761,2.20917 h -1.24075 a 0.18520833,0.18520833 0 0 1 -0.2067,-0.17983 c 0,-0.24871 0.032,-0.48923 0.032,-0.73794 0.0123,-0.45332 0.0181,-0.90681 0.0181,-1.36013 0,-0.37306 -0.013,-0.74592 -0.0315,-1.11104 -0.0265,-0.50271 -0.0635,-0.75144 -0.15606,-0.88108 z m 8.51679,0.23823 a 2.38125,2.38125 0 0 0 -0.36483,0.0315 c -0.0185,0.42598 -0.0372,0.83089 -0.0372,1.29656 0.76464,0.11906 1.29141,0.53419 1.37873,1.37821 l 0.0103,0.003 a 1.4605,1.4605 0 0 0 0.52658,-1.25677 c 0,-0.92339 -0.61931,-1.45211 -1.5136,-1.45211 z m -10.96677,0.0341 c -0.14288,0 -0.29359,0.0264 -0.42323,0.0264 -0.037,0.43391 -0.0372,0.94191 -0.0372,1.38906 v 0.74362 h 0.43408 0.0155 a 1.1086042,1.1086042 0 0 0 1.15135,-1.1405 c 0,-0.68262 -0.50815,-1.01854 -1.1405,-1.01854 z m 3.81785,0.0475 a 2.8045833,2.8045833 0 0 0 -0.47077,0.0424 c -0.0238,0.63235 -0.0558,1.27019 -0.0558,1.91048 0,0.3466 0.0186,0.76185 0.0186,1.04231 0.005,0.12965 0.013,0.30973 0.0315,0.43408 a 0.1825625,0.1825625 0 0 0 0.21187,0.1664 h 0.52917 0.0186 c 1.09802,0 1.5955,-0.78319 1.58492,-1.80712 0,-1.16152 -0.76215,-1.78853 -1.86811,-1.78853 z m 5.14078,0.11111 a 0.08466667,0.08466667 0 0 1 0.0925,0.0822 0.14552083,0.14552083 0 0 1 -0.0315,0.10594 c -0.35454,0.52123 -0.68266,0.99715 -0.96841,1.51309 0,0.41539 -2.1e-4,0.91593 0.0527,1.3472 h -0.44184 a 0.16139583,0.16139583 0 0 1 -0.19843,-0.16691 c 0.0238,-0.34925 0.0238,-0.80177 0.0238,-1.14309 -0.34661,-0.59002 -0.6693,-1.12964 -1.08469,-1.72496 h 0.49506 a 0.31485416,0.31485416 0 0 1 0.30954,0.1695 c 0.21696,0.40482 0.42327,0.8068 0.66404,1.19838 0.0979,-0.1561 0.31221,-0.49736 0.39688,-0.66404 0.0847,-0.16669 0.18256,-0.34129 0.26458,-0.50798 a 0.45508333,0.45508333 0 0 0 0.0315,-0.19844 h 0.39688 z m -13.922153,0.016 h 0.07906 a 0.2143125,0.2143125 0 0 1 0.211874,0.185 l 1.290877,2.94504 a 0.74612499,0.74612499 0 0 0 0.159163,0.26458 h -0.632519 a 0.20902083,0.20902083 0 0 1 -0.208773,-0.16381 l -0.346749,-0.863 h -1.27279 l -0.317294,0.76998 a 0.54504166,0.54504166 0 0 0 -0.03721,0.18552 0.26458333,0.26458333 0 0 0 0,0.0739 h -0.328145 a 0.10054167,0.10054167 0 0 1 -0.12454,-0.0739 0.2936875,0.2936875 0 0 1 0.03721,-0.14831 z m -0.06614,0.81752 L 95.6629,129.91 h 1.034562 z m 14.864213,0.524 a 2.38125,2.38125 0 0 0 -0.36535,0.0264 c -0.0423,0.49213 -0.0424,1.03701 -0.0424,1.5503 0,0.40481 0.0134,0.78879 0.0372,1.19889 a 0.1508125,0.1508125 0 0 0 0.17467,0.13746 h 0.41806 l 0.0103,0.003 c 0.82021,0 1.21717,-0.53427 1.27538,-1.26452 h -0.19276 -1.00562 a 0.1508125,0.1508125 0 0 1 -0.16691,-0.14314 c 0.0247,-0.50271 0.0372,-1.00521 0.0372,-1.50792 a 1.6536458,1.6536458 0 0 0 -0.17983,0 z m 0.72244,0.14521 c 0,0.33602 0.0211,0.70646 0.045,1.07952 a 0.14816666,0.14816666 0 0 0 0.16639,0.14314 h 0.42323 l 0.15917,-0.005 a 1.3229166,1.3229166 0 0 0 -0.79375,-1.2175 z" />
      <path
         id="rect2"
         style="fill:#ffffff;fill-opacity:1;stroke-width:0.264583"
         d="m 89.429167,108.74375 v 12.41423 H 115.8875 v -12.41423 z m 4.468978,1.43919 a 3.2967083,3.2967083 0 0 1 1.457792,0.34158 0.43391666,0.43391666 0 0 1 0.280603,0.35967 1.7330208,1.7330208 0 0 1 -0.31781,0.71985 1.11125,1.11125 0 0 0 -0.359668,-0.58498 1.7436041,1.7436041 0 0 0 -1.14825,-0.40204 c -1.240895,0 -1.886707,1.11144 -1.886707,2.24121 0,1.32291 0.912649,2.45773 2.277897,2.45773 a 1.9420416,1.9420416 0 0 0 1.24902,-0.52917 l 0.06356,0.52917 a 2.9104166,2.9104166 0 0 1 -1.627291,0.4656 c -1.547811,0 -2.756938,-1.03198 -2.756938,-2.61948 0,-1.63776 1.103562,-2.97914 2.76779,-2.97914 z m 17.666105,0.10594 h 2.55592 a 0.29104166,0.29104166 0 0 1 0.33331,0.26458 0.88635416,0.88635416 0 0 1 -0.0238,0.28577 c -0.29104,-0.17992 -1.24609,-0.17983 -1.61386,-0.17983 h -0.41031 c -0.0238,0.61118 -0.0501,1.23031 -0.0501,1.85208 h 1.32291 a 0.29104166,0.29104166 0 0 1 0.3545,0.23564 0.75670832,0.75670832 0 0 1 -0.0739,0.26459 3.4395833,3.4395833 0 0 0 -1.20923,-0.14315 l -0.39171,0.0238 c 0,0.762 0.0183,1.53754 0.0739,2.30219 a 1.1482917,1.1482917 0 0 0 0.0687,0.35967 h -0.65061 a 0.22754166,0.22754166 0 0 1 -0.26458,-0.24857 c 0,-0.254 0.0687,-1.69627 0.0687,-2.54558 a 18.161,18.161 0 0 0 -0.0899,-2.47116 z m -11.4484,0.25683 c 0.79375,0 1.5875,0.32785 1.5875,1.22214 a 1.4790208,1.4790208 0 0 1 -1.11156,1.41542 l 0.0134,0.0134 c 0.52123,0.78052 1.65081,2.25696 2.52129,2.5771 a 5.4239583,5.4239583 0 0 1 -0.55035,0.0372 c -0.74877,0 -1.38377,-0.70909 -1.85209,-1.32292 -0.30162,-0.4101 -0.57414,-0.81508 -0.793746,-1.16168 h -0.529166 a 9.7102082,9.7102082 0 0 0 0.08217,1.29656 0.48947916,0.48947916 0 0 0 0.05581,0.22996 h -0.79375 c -0.08202,0 -0.119372,-0.0133 -0.119372,-0.10594 0,-0.22489 0.05581,-0.90756 0.05581,-2.09289 v -1.60042 a 1.2779375,1.2779375 0 0 0 -0.08733,-0.48938 c 0.510645,-0.0185 1.018646,-0.0186 1.521354,-0.0186 z m 8.52455,0.0155 h 2.22002 c 0.3122,0 0.3917,0.24354 0.3917,0.524 v 0.0238 a 3.5983333,3.5983333 0 0 0 -1.34152,-0.17983 h -0.42891 c -0.0185,0.49212 -0.0419,0.97658 -0.0419,1.46606 h 1.16375 a 0.21960416,0.21960416 0 0 1 0.26459,0.2036 c 0,0.0952 -0.0238,0.188 -0.0238,0.2806 a 2.5267708,2.5267708 0 0 0 -1.01079,-0.14314 c -0.12171,0 -0.29342,0.0186 -0.38603,0.0186 v 1.25936 a 3.1538333,3.1538333 0 0 0 0.10594,0.85731 h -0.65887 a 0.20902083,0.20902083 0 0 1 -0.19844,-0.2434 c 0,-0.37835 0.061,-1.32802 0.061,-1.99212 0,-0.3175 0.008,-1.85785 -0.11679,-2.07481 z m -4.593,0.0186 c 1.37847,0 2.34972,0.63536 2.34972,2.07998 0,1.44462 -1.0321,2.20917 -2.41587,2.20917 h -1.22783 a 0.1905,0.1905 0 0 1 -0.20361,-0.17984 c 0,-0.24606 0.0264,-0.49491 0.0264,-0.74362 0.0185,-0.45244 0.0186,-0.89942 0.0186,-1.35186 0,-0.37306 -0.008,-0.74379 -0.0315,-1.11156 -0.0238,-0.50006 -0.061,-0.74866 -0.14831,-0.88625 z m -4.193546,0.28061 c -0.142875,0 -0.291208,0.0131 -0.434082,0.0263 -0.03704,0.43392 -0.03721,0.94192 -0.03721,1.38906 v 0.73278 h 0.434082 l 0.01344,0.0134 a 1.1086042,1.1086042 0 0 0 1.166856,-1.14308 c 0,-0.68263 -0.51073,-1.01854 -1.143084,-1.01854 z m 3.918626,0.0398 a 2.9739166,2.9739166 0 0 0 -0.46612,0.0315 c -0.0265,0.64029 -0.0501,1.27794 -0.0501,1.91823 0,0.3466 0.0186,0.76237 0.0186,1.04283 a 3.20675,3.20675 0 0 0 0.0315,0.4284 0.17727083,0.17727083 0 0 0 0.21187,0.17466 h 0.52917 l 0.0103,0.003 c 1.10067,0 1.59064,-0.78842 1.56683,-1.80971 0,-1.16152 -0.74613,-1.78852 -1.85208,-1.78852 z m -7.263125,0.11627 h 0.08217 a 0.21695833,0.21695833 0 0 1 0.211357,0.185 l 1.277958,2.94504 0.01344,0.0109 a 0.72760416,0.72760416 0 0 0 0.16123,0.2403 h -0.632002 a 0.20372916,0.20372916 0 0 1 -0.217041,-0.15606 l -0.354501,-0.86765 h -1.27279 l -0.304374,0.77256 a 0.55033333,0.55033333 0 0 0 -0.03669,0.185 0.28310416,0.28310416 0 0 0 0,0.0744 h -0.328146 c -0.05556,0 -0.12454,-0.0132 -0.12454,-0.0687 a 0.31220833,0.31220833 0 0 1 0.03721,-0.15607 z m 10.498585,0 h 0.60616 a 0.15875,0.15875 0 0 1 0.17467,0.14314 c 0,0.18786 -0.0238,0.38065 -0.0238,0.56586 -0.0185,0.34925 -0.0186,0.70379 -0.0186,1.05833 h -0.0109 a 10.2235,10.2235 0 0 0 0.10077,1.59836 h -0.57154 a 0.1905,0.1905 0 0 1 -0.19327,-0.20413 v -0.47852 c 0.0185,-0.34925 0.0186,-0.69583 0.0186,-1.03715 a 10.271125,10.271125 0 0 0 -0.0822,-1.64589 z m -10.564731,0.81752 -0.54777,1.25419 h 0.01344 1.031979 z m 10.681521,4.99298 c 0.14816,0 0.6134,0.0448 0.6134,0.24856 a 0.68791666,0.68791666 0 0 1 -0.12919,0.29869 0.62441666,0.62441666 0 0 0 -0.52917,-0.29094 0.3571875,0.3571875 0 0 0 -0.39688,0.3359 v 0.003 c 0,0.55827 1.12159,0.31734 1.13482,1.08727 0,0.52917 -0.45748,0.79375 -0.93638,0.79375 a 1.1218333,1.1218333 0 0 1 -0.51108,-0.12454 0.21695833,0.21695833 0 0 1 -0.12971,-0.21704 1.5372291,1.5372291 0 0 1 0.061,-0.29094 0.87047916,0.87047916 0 0 0 0.68782,0.36019 0.40216666,0.40216666 0 0 0 0.43408,-0.41548 c 0,-0.52652 -1.12965,-0.31781 -1.12965,-1.11156 0,-0.45244 0.41027,-0.67696 0.83096,-0.67696 z m -12.139313,0.0212 h 0.182418 c 0.568853,0.55827 1.111354,1.12138 1.693436,1.65055 v -0.41496 c 0,-0.4154 -0.0053,-0.80706 -0.02377,-1.20923 h 0.238229 a 0.10847917,0.10847917 0 0 1 0.116272,0.12971 c 0,0.10583 -0.02623,0.26704 -0.03152,0.47077 -0.0053,0.20373 -0.02377,0.40762 -0.02377,0.63252 0,0.4101 0.01809,0.79873 0.01809,1.20354 h -0.187586 c -0.547687,-0.59531 -1.119229,-1.12419 -1.69602,-1.68775 v 0.8754 a 5.2731458,5.2731458 0 0 0 0.04237,0.76998 H 95.04898 a 0.09789583,0.09789583 0 0 1 -0.12454,-0.10542 c 0,-0.17463 0.02385,-0.27256 0.04237,-0.57154 0.01852,-0.29898 0.0186,-0.93167 0.0186,-1.39733 z m -0.814937,0.006 a 0.13229166,0.13229166 0 0 1 0.111104,0.14417 c 0,0.21167 -0.02619,0.64073 -0.05529,1.30483 -0.0291,0.66411 -0.405164,1.01028 -1.087789,1.01028 -0.682624,0 -1.084688,-0.28557 -1.084688,-0.99994 v -0.59015 c 0,-0.41539 -0.0053,-0.59272 -0.02377,-0.85731 h 0.359668 a 0.10847917,0.10847917 0 0 1 0.129708,0.11111 c 0,0.29104 -0.03721,0.72537 -0.03721,1.0852 0,0.55827 0.06621,0.95498 0.725021,0.95498 0.571499,0 0.719853,-0.38644 0.719853,-0.87591 v -0.60824 a 4.0745833,4.0745833 0 0 0 -0.04754,-0.65887 h 0.224793 v -0.0134 a 0.13229166,0.13229166 0 0 1 0.06615,-0.007 z m 14.23479,0.004 h 0.28267 a 0.17197916,0.17197916 0 0 1 0.19844,0.20361 c 0,0.29633 -0.0238,0.40735 -0.0238,0.88625 v 0.006 c 0,0.64029 0.0133,1.04219 0.0398,1.31207 h -0.29869 a 0.174625,0.174625 0 0 1 -0.18552,-0.19844 c 0,-0.35983 0.0238,-0.49713 0.0238,-1.09244 a 10.395479,10.395479 0 0 0 -0.0367,-1.11673 z m -7.16494,0.003 a 0.08466667,0.08466667 0 0 1 0.0661,0.10853 0.08995833,0.08995833 0 0 1 0,0.0424 c -0.3519,0.75934 -0.7119,1.50278 -1.0294,2.27272 h -0.314706 c -0.330729,-0.82815 -0.701291,-1.62161 -1.074353,-2.41536 h 0.309542 a 0.28310416,0.28310416 0 0 1 0.304374,0.17415 c 0.07937,0.17992 0.140188,0.34131 0.222209,0.52917 0.156104,0.37041 0.346414,0.83354 0.470774,1.09812 0.1905,-0.38893 0.4395,-0.96279 0.62735,-1.42317 a 0.75670832,0.75670832 0 0 0 0.0816,-0.38395 h 0.33641 z m -3.320725,0.003 h 0.290938 a 0.16933333,0.16933333 0 0 1 0.19327,0.20412 c 0,0.29633 -0.02377,0.40736 -0.02377,0.88625 0,0.64029 0.01321,1.04207 0.04496,1.31723 h -0.30179 a 0.174625,0.174625 0 0 1 -0.192753,-0.19843 c 0,-0.35984 0.02635,-0.49713 0.02635,-1.09244 a 10.226146,10.226146 0 0 0 -0.03721,-1.11675 z m 3.812685,0.006 h 1.25677 c 0.20638,0 0.20619,0.18476 0.20619,0.32763 a 3.4925,3.4925 0 0 0 -0.95498,-0.0873 c -0.0185,0.12171 -0.0186,0.24893 -0.0186,0.36535 v 0.42065 c 0.23019,0 0.47881,-0.0238 0.709,-0.0238 a 0.14552083,0.14552083 0 0 1 0.18035,0.14262 v 0.19327 a 3.7041666,3.7041666 0 0 0 -0.87592,-0.0739 v 0.185 0.56379 c 0,0.0794 -1e-4,0.1297 0.0925,0.1297 h 0.1695 a 1.9076458,1.9076458 0 0 0 0.72502,-0.10076 v 0.17725 a 0.16404166,0.16404166 0 0 1 -0.18551,0.16691 h -1.11105 a 0.13229166,0.13229166 0 0 1 -0.14314,-0.16175 c 0,-0.41804 0.0186,-0.807 0.0186,-1.21181 0,-0.29104 -8e-5,-0.58436 -0.0186,-0.8754 a 0.35454166,0.35454166 0 0 0 -0.0501,-0.13746 z m 7.78919,0 h 1.757 v 0.005 0.12144 a 0.17991666,0.17991666 0 0 1 -0.14831,0.21704 c -0.16669,0 -0.39653,-0.0315 -0.63201,-0.0315 v 0.86764 a 11.273896,11.273896 0 0 0 0.0367,1.22215 h -0.29869 a 0.15610416,0.15610416 0 0 1 -0.19327,-0.16123 c 0,-0.35983 0.0238,-0.59004 0.0238,-1.07952 0,-0.29104 -1.5e-4,-0.55556 -0.016,-0.86248 a 5.3260624,5.3260624 0 0 0 -0.79375,0.0424 v -0.12454 a 0.23547916,0.23547916 0 0 1 0.26458,-0.21653 z m 1.95802,0 h 0.39688 a 0.26458333,0.26458333 0 0 1 0.26458,0.13746 c 0.19314,0.30956 0.3731,0.62694 0.57154,0.93121 0.0635,-0.082 0.1985,-0.29877 0.32815,-0.51573 a 2.0981458,2.0981458 0 0 0 0.26458,-0.55294 h 0.31729 a 0.07408333,0.07408333 0 0 1 0.0873,0.0765 0.13229166,0.13229166 0 0 1 -0.0155,0.0661 c -0.09,0.11642 -0.17727,0.23531 -0.26458,0.35967 -0.19844,0.27781 -0.39692,0.5635 -0.57154,0.86248 0,0.3466 0.005,0.68808 0.0367,1.02939 h -0.32246 a 0.14022916,0.14022916 0 0 1 -0.1695,-0.12454 c 0,-0.12964 0.0264,-0.35944 0.0264,-0.58963 v -0.26458 c -0.29897,-0.48419 -0.6085,-0.95769 -0.94981,-1.41542 z m -7.62279,0.005 h 0.28577 0.58239 c 0.43392,0 0.88109,0.1481 0.88109,0.66404 a 0.73554166,0.73554166 0 0 1 -0.60358,0.70125 h 0.0134 a 8.2020832,8.2020832 0 0 0 1.01854,1.29605 h -0.1297 a 0.76993749,0.76993749 0 0 1 -0.69557,-0.34624 c -0.21696,-0.29104 -0.39718,-0.56918 -0.58239,-0.86816 h -0.26458 a 6.9823541,6.9823541 0 0 0 0.0424,0.93689 h -0.31729 a 0.142875,0.142875 0 0 1 -0.17467,-0.15606 v -0.34158 -0.71934 c 0,-0.33602 0.0185,-0.74104 0,-1.00562 a 0.2936875,0.2936875 0 0 0 -0.0558,-0.16123 z m 0.51366,0.20619 c -0.0185,0.17991 -0.0186,0.61383 -0.0186,0.79375 v 0.24081 h 0.12144 0.0134 c 0.34131,0 0.70118,-0.11117 0.70383,-0.50539 a 0.55297916,0.55297916 0 0 0 -0.61392,-0.52917 z" />
    </g>
  </g>
</svg>
