<?xml version="1.0" encoding="UTF-8" standalone="no"?>
<!-- Created with Inkscape (http://www.inkscape.org/) -->

<svg
   width="30mm"
   height="10mm"
   viewBox="0 0 30 10"
   version="1.1"
   id="svg1"
   inkscape:version="1.3.2 (091e20ef0f, 2023-11-25, custom)"
   sodipodi:docname="star-logo.svg"
   xmlns:inkscape="http://www.inkscape.org/namespaces/inkscape"
   xmlns:sodipodi="http://sodipodi.sourceforge.net/DTD/sodipodi-0.dtd"
   xmlns="http://www.w3.org/2000/svg"
   xmlns:svg="http://www.w3.org/2000/svg">
  <sodipodi:namedview
     id="namedview1"
     pagecolor="#000000"
     bordercolor="#000000"
     borderopacity="0.25"
     inkscape:showpageshadow="2"
     inkscape:pageopacity="0.0"
     inkscape:pagecheckerboard="0"
     inkscape:deskcolor="#d1d1d1"
     inkscape:document-units="mm"
     inkscape:zoom="7.0555555"
     inkscape:cx="71.433071"
     inkscape:cy="11.692913"
     inkscape:window-width="2560"
     inkscape:window-height="1410"
     inkscape:window-x="0"
     inkscape:window-y="30"
     inkscape:window-maximized="1"
     inkscape:current-layer="layer1" />
  <defs
     id="defs1" />
  <g
     inkscape:label="Layer 1"
     inkscape:groupmode="layer"
     id="layer1">
    <g
       id="text1"
       style="font-size:7.05556px;font-family:Impact;-inkscape-font-specification:Impact;fill:#48ffff;stroke-width:0.264999"
       aria-label="STAR">
      <path
         style="font-size:6.35px;font-family:'Font Awesome 6 Free';-inkscape-font-specification:'Font Awesome 6 Free';text-align:center;text-anchor:middle;fill:#ffffff;stroke-width:0.265"
         d="m 3.5956335,1.7355601 q 0.1860351,0.012402 0.2728515,0.1736328 l 0.8433594,1.7487305 v 0 L 6.609403,3.9307749 v 0 Q 6.7954381,3.967982 6.8574498,4.1416148 6.9070592,4.3152476 6.7830358,4.439271 L 5.4063756,5.8035288 v 0 l 0.322461,1.9347656 v 0 Q 5.7536413,7.9119272 5.6048131,8.0359506 5.455985,8.1351694 5.2947546,8.048353 L 3.5956335,7.1429819 v 0 L 1.8965124,8.048353 v 0 Q 1.7352819,8.1351694 1.5864538,8.0235483 1.4376257,7.9119272 1.4624304,7.7382944 L 1.7848913,5.8035288 v 0 L 0.40823119,4.439271 v 0 Q 0.28420775,4.3152476 0.33381713,4.1416148 0.39582884,3.967982 0.581864,3.9307749 L 2.4794226,3.6579234 v 0 L 3.3227819,1.9091929 v 0 Q 3.4095983,1.7479625 3.5956335,1.7355601 Z m 0,0.9797852 L 2.9383093,4.0547984 3.5956335,2.7153453 2.9383093,4.0547984 Q 2.8762976,4.1912241 2.7150671,4.2284312 L 1.2515906,4.439271 v 0 l 1.0666015,1.0541992 v 0 q 0.099219,0.1116211 0.086816,0.2604492 L 2.1445593,7.2422007 v 0 L 3.4592077,6.5476694 v 0 q 0.1364258,-0.074414 0.2728516,0 l 1.302246,0.6945313 v 0 L 4.7862585,5.7539194 v 0 Q 4.7614538,5.6050913 4.8730749,5.4934702 L 5.9396764,4.439271 v 0 L 4.4761999,4.2284312 v 0 Q 4.3149694,4.1912241 4.2529577,4.0547984 L 3.5956335,2.7153453 Z"
         id="path6" />
      <path
         style="font-weight:900;font-size:3.52778px;font-family:'Font Awesome 6 Free';-inkscape-font-specification:'Font Awesome 6 Free Heavy';text-align:center;baseline-shift:sub;text-anchor:middle;fill:#ffffff;stroke-width:0.265"
         d="M 8.0217,5.7401381 Q 7.9596883,5.6230048 7.8218844,5.6161146 7.6909707,5.6230048 7.6220687,5.7401381 L 7.1810962,6.6496439 v 0 L 6.1889081,6.8012282 v 0 Q 6.0579943,6.8218988 6.0166532,6.9459223 5.975312,7.076836 6.0717747,7.1732987 l 0.7165804,0.7096902 v 0 L 6.6161002,8.8889574 v 0 q -0.01378,0.1309137 0.089573,0.213596 0.1102431,0.075792 0.2342667,0.01378 l 0.881945,-0.4685333 v 0 l 0.8888352,0.4685333 v 0 q 0.1171333,0.062012 0.2273764,-0.01378 0.1102432,-0.082682 0.089573,-0.213596 L 8.8623039,7.8829889 v 0 L 9.5788842,7.1732987 v 0 Q 9.6684567,7.076836 9.6340058,6.9459223 9.5857744,6.8218988 9.4548607,6.8012282 L 8.4626725,6.6496439 v 0 L 8.0217,5.7401381 Z"
         id="path7" />
      <path
         style="font-weight:900;font-family:'Font Awesome 6 Free';-inkscape-font-specification:'Font Awesome 6 Free Heavy';fill:#ffffff;stroke-width:0.265"
         d="m 11.31052,2.565136 q -0.413412,0.1791451 -0.468534,0.5512156 -0.04134,0.2756078 0.02756,0.3996313 0.05512,0.137804 0.234267,0.2618275 0.399631,0.248047 1.171333,0.4409725 0,0 0,0 0.02756,0.01378 0.04134,0.01378 0.34451,0.096463 0.71658,0.2204862 0.358291,0.1378039 0.67524,0.3445098 0.330729,0.2204862 0.523654,0.6201176 0.179145,0.4134117 0.09646,0.9095058 -0.192925,0.881945 -0.992188,1.2126744 -0.757922,0.3031686 -1.708768,0.1378039 v 0 0 0 0 Q 11.365641,7.6363198 11.034912,7.5260767 10.690402,7.4296139 10.414794,7.3331512 10.345892,7.3055904 10.290771,7.29181 10.26321,7.2780296 10.249429,7.2780296 10.070284,7.2091277 9.987602,7.043763 9.9187,6.8921787 9.9738216,6.7130336 10.028943,6.5338885 10.194308,6.4512062 q 0.151584,-0.068902 0.330729,-0.01378 0.09646,0.027561 0.220486,0.068902 0.01378,0 0.02756,0.01378 0.275608,0.082682 0.537436,0.1791451 0.275607,0.082682 0.454752,0.1102432 0.785483,0.1102431 1.226455,-0.082682 Q 13.405139,6.5476689 13.46026,6.1755984 13.501602,5.8999906 13.4327,5.775967 13.377578,5.6381631 13.198433,5.5141396 12.798802,5.2660926 12.0271,5.0731671 q 0,0 0,0 -0.02756,-0.01378 -0.04134,-0.01378 Q 11.641249,4.962924 11.269178,4.8389005 10.910888,4.7010966 10.593939,4.4943907 10.26321,4.2739044 10.070284,3.8742731 9.8911393,3.4608614 9.9738216,2.9647673 l 0.4409724,0.068902 v 0 L 9.9738216,2.9647673 v 0 q 0.1929254,-0.881945 0.9921884,-1.198894 0.757921,-0.316949 1.708768,-0.1515843 0.151585,0.01378 0.440973,0.082682 0.303168,0.055122 0.468533,0.096463 0.179145,0.055122 0.275608,0.2067059 0.08268,0.1515843 0.04134,0.3307293 -0.05512,0.1791451 -0.206706,0.2756078 -0.151584,0.082682 -0.330729,0.041341 -0.137804,-0.041341 -0.413412,-0.082682 -0.275608,-0.055122 -0.413412,-0.082682 l 0.0689,-0.4271921 v 0 l -0.0689,0.4271921 v 0 Q 11.751492,2.3722105 11.31052,2.5789164 Z m 3.636438,-1.0059686 q -0.192925,0 -0.316949,0.1240236 v 0 0 q -0.124023,0.1240235 -0.124023,0.316949 0,0.1929254 0.124023,0.3169489 0.124024,0.1240236 0.316949,0.1240236 h 1.76389 v 0 4.8506975 0 q 0,0.1929255 0.124024,0.316949 0.124023,0.1240235 0.316949,0.1240235 0.192925,0 0.316949,-0.1240235 0.124023,-0.1240235 0.124023,-0.316949 v -4.8506975 0 h 1.76389 v 0 q 0.192926,0 0.316949,-0.1240236 0.124024,-0.1240235 0.124024,-0.3169489 0,-0.1929255 -0.124024,-0.316949 -0.124023,-0.1240236 -0.316949,-0.1240236 h -2.204862 z m 7.459944,0.2756079 q -0.124023,-0.2618275 -0.413411,-0.2756079 -0.289389,0.01378 -0.399632,0.2756079 l -1.653647,3.9687525 v 0 l -0.551215,1.3229175 v 0 q -0.0689,0.1653647 -0.01378,0.3307294 0.0689,0.1653647 0.248047,0.2480471 0.165365,0.055121 0.33073,0 0.165365,-0.068902 0.248047,-0.2480471 L 20.629232,6.409865 v 0 h 2.728517 v 0 l 0.440973,1.0473097 v 0 q 0.0689,0.1791451 0.234267,0.2480471 0.165364,0.055121 0.330729,0 0.179145,-0.082682 0.248047,-0.2480471 0.05512,-0.1653647 0,-0.3307294 L 24.060549,5.8035278 v 0 L 22.406902,1.8347753 Z M 22.985679,5.52792 h -1.984376 1.984376 -1.984376 l 0.992188,-2.3840076 v 0 L 22.985679,5.52792 Z M 26.09127,1.5591674 q -0.37207,0.01378 -0.620117,0.2618275 v 0 0 q -0.248047,0.248047 -0.261828,0.6201176 v 2.645835 0 2.2048625 0 q 0,0.1929255 0.124024,0.316949 0.124023,0.1240235 0.316949,0.1240235 0.192925,0 0.316949,-0.1240235 Q 26.09127,7.4847355 26.09127,7.29181 v -1.76389 0 h 1.309137 v 0 l 1.419381,2.0119371 v 0 q 0.110243,0.1515843 0.275607,0.1929254 0.179146,0.027561 0.33073,-0.082682 0.151584,-0.1102431 0.192925,-0.2756078 0.02756,-0.1791451 -0.08268,-0.3307294 L 28.378815,5.3901161 v 0 Q 28.930031,5.1558495 29.274541,4.6597554 29.60527,4.1774417 29.61905,3.5435437 29.591489,2.7029399 29.040274,2.1379439 28.475278,1.5867282 27.634674,1.5591674 H 26.09127 Z M 27.634674,4.645975 H 26.09127 27.634674 26.09127 v -2.2048625 0 h 1.543404 v 0 q 0.468533,0.01378 0.785482,0.3169489 0.303169,0.316949 0.316949,0.7854823 -0.01378,0.4685333 -0.316949,0.7854823 -0.316949,0.3031686 -0.785482,0.316949 z"
         id="path8" />
    </g>
  </g>
</svg>
